<svg width="70" height="70" viewBox="0 0 70 70" fill="none" xmlns="http://www.w3.org/2000/svg">
<rect width="70" height="70" rx="8" fill="#FE8F66"/>
<path d="M35.0001 20.3333C31.3193 20.3333 28.3333 23.3193 28.3333 27.0001C28.3333 30.6837 31.3193 33.6669 35.0001 33.6669C38.6825 33.6669 41.6653 30.6837 41.6669 27.0001C41.6653 23.3193 38.6825 20.3333 35.0001 20.3333ZM35.5105 28.2317C35.2668 28.332 34.9989 28.358 34.7405 28.3064C34.4821 28.2547 34.2448 28.1277 34.0584 27.9413C33.8721 27.755 33.7452 27.5176 33.6936 27.2592C33.642 27.0008 33.668 26.7329 33.7685 26.4893L35.0001 23.6693L36.2317 26.4897C36.3668 26.8163 36.3667 27.1833 36.2315 27.5099C36.0963 27.8365 35.8369 28.0961 35.5105 28.2317Z" fill="white"/>
<path d="M48.3332 27H44.3332C44.332 32.1472 40.1456 36.3332 35 36.3332C29.8544 36.3332 25.668 32.1472 25.6668 27.0012V27H21.6668C20.2004 27 19 28.2004 19 29.6668V47C19 48.466 20.2004 49.6668 21.6668 49.6668H48.3332C49.7996 49.6668 51 48.466 51 47V29.6668C51 28.2004 49.7996 27 48.3332 27ZM45.6668 44.3332H24.3332V41.6668H45.6668V44.3332Z" fill="white"/>
</svg>
