<svg width="75" height="75" viewBox="0 0 75 75" fill="none" xmlns="http://www.w3.org/2000/svg">
<g id="Group 2484">
<g id="Group 2488">
<path id="Vector" d="M13.5492 0.692719C7.34782 2.44098 2.44114 7.34767 0.692871 13.5491L13.5492 0.692719Z" fill="#FFCC41"/>
<path id="Vector_2" d="M17.8044 0.0164795C8.19716 0.404066 0.404188 8.18879 0.0166016 17.8042L17.8044 0.0164795Z" fill="#FFCC41"/>
<path id="Vector_3" d="M21.3997 0H18.5547C8.35373 0 0 8.35373 0 18.5547V21.3997L21.3997 0Z" fill="#FFCC41"/>
<path id="Vector_4" d="M24.987 0H18.5547C8.35373 0 0 8.35373 0 18.5547V24.987L24.987 0Z" fill="#FFCC41"/>
<path id="Vector_5" d="M28.566 0H18.5547C8.35373 0 0 8.35373 0 18.5547V28.566L28.566 0Z" fill="#FFCC41"/>
<path id="Vector_6" d="M32.145 0H18.5547C15.5942 0 12.7986 0.700955 10.3082 1.94618L1.94618 10.3082C0.700955 12.7986 0 15.5942 0 18.5547V32.145L32.145 0Z" fill="#FFCC41"/>
<path id="Vector_7" d="M35.7322 0H18.5547C17.5486 0 16.559 0.0824654 15.5942 0.239149L0.239149 15.5942C0.0824654 16.559 0 17.5486 0 18.5547V35.7322L35.7322 0Z" fill="#FFCC41"/>
<path id="Vector_8" d="M0 39.3112L39.3112 0H19.4206L0 19.4206V39.3112Z" fill="#FFCC41"/>
<path id="Vector_9" d="M0 42.8902L42.8902 0H22.9996L0 22.9996V42.8902Z" fill="#FFCC41"/>
<path id="Vector_10" d="M0 46.4774L46.4774 0H26.5786L0 26.5786V46.4774Z" fill="#FFCC41"/>
<path id="Vector_11" d="M0 30.1658V50.0564L50.0564 0H30.1658L0 30.1658Z" fill="#FFCC41"/>
<path id="Vector_12" d="M0 33.7448V53.6354L53.6354 0H33.7448L0 33.7448Z" fill="#FFCC41"/>
<path id="Vector_13" d="M55.6641 0H37.3238L0 37.3238V55.6641C0 56.1671 0.0247396 56.6619 0.0577258 57.1567L57.1567 0.0577258C56.6619 0.0247396 56.1671 0 55.6641 0Z" fill="#FFCC41"/>
<path id="Vector_14" d="M55.6641 0H40.911L0 40.911V55.6641C0 57.2391 0.197917 58.7648 0.569011 60.2326L60.2326 0.569011C58.7648 0.197917 57.2391 0 55.6641 0Z" fill="#FFCC41"/>
<path id="Vector_15" d="M55.6641 0H44.49L0 44.49V55.6641C0 58.2287 0.527778 60.6779 1.47613 62.9045L62.9045 1.47613C60.6779 0.527778 58.2287 0 55.6641 0Z" fill="#FFCC41"/>
<path id="Vector_16" d="M65.2713 2.69661C62.4592 0.989583 59.1688 0 55.6641 0H48.069L0 48.069V55.6641C0 59.1688 0.989583 62.4592 2.69661 65.2713L65.2713 2.69661Z" fill="#FFCC41"/>
<path id="Vector_17" d="M67.3659 4.18099C64.1662 1.57509 60.0924 0 55.6641 0H51.6562L0 51.6562V55.6641C0 60.0924 1.57509 64.1662 4.18099 67.3659L67.3659 4.18099Z" fill="#FFCC41"/>
<path id="Vector_18" d="M55.6641 0H55.2352L0 55.2352V55.6641C0 60.9996 2.28429 65.8238 5.91276 69.2131L69.2131 5.91276C65.8238 2.28429 60.9996 0 55.6641 0Z" fill="#FFCC41"/>
<path id="Vector_19" d="M0.230957 58.5833C1.03912 63.6137 3.88417 67.9926 7.88373 70.8212L70.8212 7.88367C67.9927 3.87586 63.6138 1.03081 58.5834 0.230896L0.230957 58.5833Z" fill="#FFCC41"/>
<path id="Vector_20" d="M0.931641 61.4614C2.47374 66.1124 5.81359 69.9553 10.11 72.1736L72.1734 10.1102C69.9633 5.8138 66.1122 2.47395 61.4612 0.931854L0.931641 61.4614Z" fill="#FFCC41"/>
<path id="Vector_21" d="M1.9873 63.9931C4.17263 68.306 7.99902 71.6706 12.6336 73.2457L73.2456 12.6337C71.6705 7.99915 68.3059 4.17276 63.9929 1.98743L1.9873 63.9931Z" fill="#FFCC41"/>
<path id="Vector_22" d="M3.33154 66.2361C6.13536 70.2522 10.4813 73.122 15.4952 73.9631L73.9631 15.4952C73.1219 10.4813 70.2521 6.13542 66.2361 3.3316L3.33154 66.2361Z" fill="#FFCC41"/>
<path id="Vector_23" d="M74.2189 18.5547C74.2189 13.178 71.9016 8.32076 68.2237 4.92319L4.92334 68.2235C8.32091 71.9015 13.1781 74.2188 18.5549 74.2188H18.8187L74.2189 18.8186V18.5547Z" fill="#FFCC41"/>
<path id="Vector_24" d="M74.2188 18.5547C74.2188 14.0851 72.619 9.97829 69.9636 6.76215L6.76221 69.9635C9.97835 72.6189 14.0851 74.2187 18.5547 74.2187H22.3976L74.2188 22.3976V18.5547Z" fill="#FFCC41"/>
<path id="Vector_25" d="M74.2189 18.5547C74.2189 15.0004 73.2045 11.6771 71.4563 8.84851L8.84863 71.4562C11.6772 73.2044 15.0005 74.2187 18.5548 74.2187H25.9849L74.2189 25.9848V18.5547Z" fill="#FFCC41"/>
<path id="Vector_26" d="M18.5546 74.2188H29.5637L74.2187 29.5638V18.5547C74.2187 15.9488 73.6744 13.4583 72.6931 11.1988L11.1987 72.6849C13.4583 73.6745 15.9487 74.2188 18.5546 74.2188Z" fill="#FFCC41"/>
<path id="Vector_27" d="M18.5546 74.2188H33.1427L74.2186 33.1428V18.5547C74.2186 16.9301 74.0042 15.3633 73.6084 13.8624L13.8623 73.6085C15.3632 74.0044 16.93 74.2188 18.5546 74.2188Z" fill="#FFCC41"/>
<path id="Vector_28" d="M18.5546 74.2188H36.7299L74.2186 36.73V18.5547C74.2186 18.0022 74.1939 17.4497 74.1444 16.9054L16.9053 74.1445C17.4495 74.194 18.0021 74.2188 18.5546 74.2188Z" fill="#FFCC41"/>
<path id="Vector_29" d="M40.3091 74.2187L74.2188 40.309V20.4184L20.4185 74.2187H40.3091Z" fill="#FFCC41"/>
<path id="Vector_30" d="M43.8882 74.2188L74.2189 43.888V23.9974L23.9976 74.2188H43.8882Z" fill="#FFCC41"/>
<path id="Vector_31" d="M47.475 74.2187L74.2185 47.4753V27.5764L27.5762 74.2187H47.475Z" fill="#FFCC41"/>
<path id="Vector_32" d="M51.0542 74.2188L74.2187 51.0543V31.1636L31.1636 74.2188H51.0542Z" fill="#FFCC41"/>
<path id="Vector_33" d="M54.6333 74.2187L74.2188 54.6332V34.7426L34.7427 74.2187H54.6333Z" fill="#FFCC41"/>
<path id="Vector_34" d="M74.2189 55.6641V38.3216L38.3218 74.2188H55.6642C56.6043 74.2188 57.5197 74.1445 58.4268 74.0126L74.0128 58.4267C74.1447 57.5195 74.2189 56.6042 74.2189 55.6641Z" fill="#FFCC41"/>
<path id="Vector_35" d="M74.2186 55.6641V41.9088L41.9087 74.2187H55.6639C58.4925 74.2187 61.1808 73.5755 63.5888 72.4292L72.4291 63.589C73.5754 61.181 74.2186 58.4926 74.2186 55.6641Z" fill="#FFCC41"/>
<path id="Vector_36" d="M74.2187 45.4879L45.4878 74.2188H55.664C65.8732 74.2188 74.2187 65.865 74.2187 55.6641V45.4879Z" fill="#FFCC41"/>
<path id="Vector_37" d="M74.2188 49.0668L49.0669 74.2187H55.6641C65.8733 74.2187 74.2188 65.865 74.2188 55.6641V49.0668Z" fill="#FFCC41"/>
<path id="Vector_38" d="M74.219 52.6541L52.6543 74.2188H55.6643C65.8735 74.2188 74.219 65.865 74.219 55.6641V52.6541Z" fill="#FFCC41"/>
<path id="Vector_39" d="M74.2104 56.2413L56.2412 74.2105C65.9886 73.9054 73.9053 65.9887 74.2104 56.2413Z" fill="#FFCC41"/>
<path id="Vector_40" d="M73.5922 60.4471L60.4473 73.592C66.8301 71.8767 71.877 66.8299 73.5922 60.4471Z" fill="#FFCC41"/>
</g>
<path id="Vector_41" d="M55.6524 46.2548L38.1038 56.5135C37.642 56.7856 37.0812 56.7856 36.6194 56.5217L18.6667 46.2301C17.6607 45.6528 17.6772 44.2014 18.6915 43.6407L36.2401 34.017C36.6772 33.7778 37.2132 33.7696 37.6585 34.0087L55.6112 43.6572C56.6255 44.2097 56.6503 45.6693 55.6524 46.2548Z" fill="#FFF1C0"/>
<path id="Vector_42" d="M55.6524 38.0908L38.1038 48.3494C37.642 48.6216 37.0812 48.6216 36.6194 48.3577L18.6667 38.066C17.6607 37.4888 17.6772 36.0374 18.6915 35.4766L36.2401 25.8529C36.6772 25.6138 37.2132 25.6055 37.6585 25.8447L55.6112 35.4931C56.6255 36.0456 56.6503 37.5053 55.6524 38.0908Z" fill="#FFF9D9"/>
<path id="Vector_43" d="M55.6524 29.9267L38.1038 40.1854C37.642 40.4575 37.0812 40.4575 36.6194 40.1936L18.6667 29.902C17.6607 29.3247 17.6772 27.8733 18.6915 27.3125L36.2401 17.6888C36.6772 17.4497 37.2132 17.4415 37.6585 17.6806L55.6112 27.329C56.6255 27.8816 56.6503 29.3412 55.6524 29.9267Z" fill="#FCF1D3"/>
</g>
</svg>
