<svg width="176" height="176" viewBox="0 0 176 176" fill="none" xmlns="http://www.w3.org/2000/svg">
<path d="M32.0898 1.75C17.4023 5.89062 5.78125 17.5117 1.64062 32.1992L32.0898 1.75Z" fill="#50DFB2"/>
<path d="M42.168 0.148438C19.4141 1.06641 0.957031 19.5039 0.0390625 42.2773L42.168 0.148438Z" fill="#50DFB2"/>
<path d="M50.6836 0.109375H43.9453C19.7852 0.109375 0 19.8945 0 44.0547V50.793L50.6836 0.109375Z" fill="#50DFB2"/>
<path d="M59.1797 0.109375H43.9453C19.7852 0.109375 0 19.8945 0 44.0547V59.2891L59.1797 0.109375Z" fill="#50DFB2"/>
<path d="M67.6562 0.109375H43.9453C19.7852 0.109375 0 19.8945 0 44.0547V67.7656L67.6562 0.109375Z" fill="#50DFB2"/>
<path d="M76.1328 0.109375H43.9453C36.9336 0.109375 30.3125 1.76953 24.4141 4.71875L4.60937 24.5234C1.66016 30.4219 0 37.043 0 44.0547V76.2422L76.1328 0.109375Z" fill="#50DFB2"/>
<path d="M84.6289 0.109375H43.9453C41.5625 0.109375 39.2188 0.304688 36.9336 0.675782L0.566407 37.043C0.195313 39.3281 0 41.6719 0 44.0547V84.7383L84.6289 0.109375Z" fill="#50DFB2"/>
<path d="M0 93.2148L93.1055 0.109375H45.9961L0 46.1055V93.2148Z" fill="#50DFB2"/>
<path d="M0 101.691L101.582 0.109375H54.4727L0 54.582V101.691Z" fill="#50DFB2"/>
<path d="M0 110.187L110.078 0.109375H62.9492L0 63.0586V110.187Z" fill="#50DFB2"/>
<path d="M0 71.5547V118.664L118.555 0.109375H71.4453L0 71.5547Z" fill="#50DFB2"/>
<path d="M0 80.0312V127.141L127.031 0.109375H79.9219L0 80.0312Z" fill="#50DFB2"/>
<path d="M131.836 0.109375H88.3984L0 88.5078V131.945C0 133.137 0.0585939 134.309 0.136719 135.48L135.371 0.246094C134.199 0.167969 133.027 0.109375 131.836 0.109375Z" fill="#50DFB2"/>
<path d="M131.836 0.109375H96.8945L0 97.0039V131.945C0 135.676 0.46875 139.289 1.34766 142.766L142.656 1.45703C139.18 0.578125 135.566 0.109375 131.836 0.109375Z" fill="#50DFB2"/>
<path d="M131.836 0.109375H105.371L0 105.48V131.945C0 138.02 1.25 143.82 3.49609 149.094L148.984 3.60547C143.711 1.35938 137.91 0.109375 131.836 0.109375Z" fill="#50DFB2"/>
<path d="M154.59 6.49609C147.93 2.45312 140.137 0.109375 131.836 0.109375H113.848L0 113.957V131.945C0 140.246 2.34375 148.039 6.38672 154.699L154.59 6.49609Z" fill="#50DFB2"/>
<path d="M159.551 10.0117C151.973 3.83984 142.324 0.109375 131.836 0.109375H122.344L0 122.453V131.945C0 142.434 3.73047 152.082 9.90234 159.66L159.551 10.0117Z" fill="#50DFB2"/>
<path d="M131.836 0.109375H130.82L0 130.93V131.945C0 144.582 5.41016 156.008 14.0039 164.035L163.926 14.1133C155.898 5.51953 144.473 0.109375 131.836 0.109375Z" fill="#50DFB2"/>
<path d="M0.546875 138.859C2.46094 150.773 9.19922 161.145 18.6719 167.844L167.734 18.7812C161.035 9.28906 150.664 2.55078 138.75 0.65625L0.546875 138.859Z" fill="#50DFB2"/>
<path d="M2.20703 145.676C5.85938 156.691 13.7695 165.793 23.9453 171.047L170.938 24.0547C165.703 13.8789 156.582 5.96875 145.566 2.31641L2.20703 145.676Z" fill="#50DFB2"/>
<path d="M4.70703 151.672C9.88281 161.887 18.9453 169.855 29.9219 173.586L173.477 30.0312C169.746 19.0547 161.777 9.99219 151.562 4.81641L4.70703 151.672Z" fill="#50DFB2"/>
<path d="M7.89062 156.984C14.5312 166.496 24.8242 173.293 36.6992 175.285L175.176 36.8086C173.184 24.9336 166.387 14.6406 156.875 8L7.89062 156.984Z" fill="#50DFB2"/>
<path d="M175.781 44.0547C175.781 31.3203 170.293 19.8164 161.582 11.7695L11.6602 161.691C19.707 170.402 31.2109 175.891 43.9453 175.891H44.5703L175.781 44.6797V44.0547Z" fill="#50DFB2"/>
<path d="M175.781 44.0547C175.781 33.4688 171.992 23.7422 165.703 16.125L16.0156 165.812C23.6328 172.102 33.3594 175.891 43.9453 175.891H53.0469L175.781 53.1562V44.0547Z" fill="#50DFB2"/>
<path d="M175.781 44.0547C175.781 35.6367 173.379 27.7656 169.238 21.0664L20.957 169.348C27.6562 173.488 35.5273 175.891 43.9453 175.891H61.543L175.781 61.6523V44.0547Z" fill="#50DFB2"/>
<path d="M43.9453 175.891H70.0195L175.781 70.1289V44.0547C175.781 37.8828 174.492 31.9844 172.168 26.6328L26.5234 172.258C31.875 174.602 37.7734 175.891 43.9453 175.891Z" fill="#50DFB2"/>
<path d="M43.9453 175.891H78.4961L175.781 78.6055V44.0547C175.781 40.207 175.273 36.4961 174.336 32.9414L32.832 174.445C36.3867 175.383 40.0977 175.891 43.9453 175.891Z" fill="#50DFB2"/>
<path d="M43.9453 175.891H86.9922L175.781 87.1016V44.0547C175.781 42.7461 175.723 41.4375 175.605 40.1484L40.0391 175.715C41.3281 175.832 42.6367 175.891 43.9453 175.891Z" fill="#50DFB2"/>
<path d="M95.4687 175.891L175.781 95.5781V48.4688L48.3594 175.891H95.4687Z" fill="#50DFB2"/>
<path d="M103.945 175.891L175.781 104.055V56.9453L56.8359 175.891H103.945Z" fill="#50DFB2"/>
<path d="M112.441 175.891L175.781 112.551V65.4219L65.3125 175.891H112.441Z" fill="#50DFB2"/>
<path d="M120.918 175.891L175.781 121.027V73.918L73.8086 175.891H120.918Z" fill="#50DFB2"/>
<path d="M129.395 175.891L175.781 129.504V82.3945L82.2852 175.891H129.395Z" fill="#50DFB2"/>
<path d="M175.781 131.945V90.8711L90.7617 175.891H131.836C134.062 175.891 136.23 175.715 138.379 175.402L175.293 138.488C175.605 136.34 175.781 134.172 175.781 131.945Z" fill="#50DFB2"/>
<path d="M175.781 131.945V99.3672L99.2578 175.891H131.836C138.535 175.891 144.902 174.367 150.605 171.652L171.543 150.715C174.258 145.012 175.781 138.645 175.781 131.945Z" fill="#50DFB2"/>
<path d="M175.781 107.844L107.734 175.891H131.836C156.016 175.891 175.781 156.105 175.781 131.945V107.844Z" fill="#50DFB2"/>
<path d="M175.781 116.32L116.211 175.891H131.836C156.016 175.891 175.781 156.105 175.781 131.945V116.32Z" fill="#50DFB2"/>
<path d="M175.781 124.816L124.707 175.891H131.836C156.016 175.891 175.781 156.105 175.781 131.945V124.816Z" fill="#50DFB2"/>
<path d="M175.762 133.312L133.203 175.871C156.289 175.148 175.039 156.398 175.762 133.312Z" fill="#50DFB2"/>
<path d="M174.297 143.273L143.164 174.406C158.281 170.344 170.234 158.391 174.297 143.273Z" fill="#50DFB2"/>
<path d="M118 108.1H123V133H118V108.1ZM108 108.1H113V133H108V108.1ZM97.9998 108.1H103V133H97.9998V108.1ZM88 108.1H92.9999V133H88V108.1ZM78.0002 108.1H83.0001V133H78.0002V108.1ZM67.9996 108.1H73.0002V133H67.9996V108.1ZM51.4502 133L49.5496 128.399C56.2497 125.849 56.0001 113 55.3497 108.35L60.3496 107.65C60.4002 108.5 63.0011 128.399 51.4502 133ZM125.5 83.0001V65.5C125.609 53.1848 115.716 43.1111 103.402 43H58.0005C53.8584 43 50.5002 46.3574 50.5002 50.4995V83.0001H43V103H133V83.0001H125.5ZM63.0011 52.9998H88V57.9998H63.0011V52.9998ZM63.0011 62.9997H88V67.9996H63.0011V62.9997ZM63.0011 96.9986H53.0005V88.9998H63.0011V96.9986ZM97.9998 78.0002H63.0011V72.9995H97.9998V78.0002ZM103 62.9997V48.0006C111.783 47.7609 119.292 54.2718 120.3 63.0011H103V62.9997Z" fill="white"/>
</svg>
