<svg width="70" height="70" viewBox="0 0 70 70" fill="none" xmlns="http://www.w3.org/2000/svg">
<rect width="70" height="70" rx="8" fill="#783EFD"/>
<path d="M49.6886 24.6101C48.8406 30.021 48.1867 35.2441 47.1572 40.3766C46.4751 43.7857 43.4023 45.8719 39.9071 45.8781H23.636C21.8806 45.8781 20.9043 46.6694 20.9575 47.9861C21.0076 49.2372 21.9807 49.9816 23.6266 49.9847C29.1525 49.9847 34.6816 50.0191 40.2107 49.9847C45.1921 49.9472 49.0221 47.0103 50.3395 42.2407C52.0386 36.0792 52.5611 29.7301 52.9898 23.4029C53.1087 21.6358 52.1856 20.588 50.4083 20.5286C47.3888 20.4128 44.3629 20.4254 41.334 20.491C39.9478 20.5192 39.1781 21.4888 39.3377 22.7461C39.5223 24.1785 40.5267 24.5976 41.7971 24.6039C44.2847 24.6164 46.7817 24.6101 49.6886 24.6101ZM17.8347 23.3591L21.3393 27.2999C15.5067 33.0986 16.5862 40.7144 18.6389 43.7232C19.3961 38.7189 21.455 34.5091 25.867 31.5723L29.381 34.7625L30.7922 20L17.8347 23.3591ZM39.0498 32.4605C40.3984 32.4605 41.7502 32.4199 43.0988 32.4605C44.5444 32.5168 44.6446 31.6286 44.6446 30.5308C44.6446 29.433 44.4693 28.7293 43.1176 28.7293C40.3661 28.7772 37.6146 28.7772 34.8631 28.7293C33.5082 28.7293 33.4175 29.5456 33.4175 30.5808C33.4175 31.6161 33.455 32.4918 34.8349 32.4574C36.2148 32.423 37.648 32.4574 39.0498 32.4605Z" fill="white"/>
</svg>
