<svg width="82" height="75" viewBox="0 0 82 75" fill="none" xmlns="http://www.w3.org/2000/svg">
<path d="M15.2738 0.692383C8.54187 2.44068 3.21545 7.34744 1.31763 13.5489L15.2738 0.692383Z" fill="#50DFB2"/>
<path d="M19.8931 0.0166016C9.4641 0.404195 1.00448 8.18905 0.58374 17.8047L19.8931 0.0166016Z" fill="#50DFB2"/>
<path d="M23.7963 0H20.7079C9.63427 0 0.565918 8.35387 0.565918 18.555V21.4001L23.7963 0Z" fill="#50DFB2"/>
<path d="M27.6904 0H20.7079C9.63427 0 0.565918 8.35387 0.565918 18.555V24.9874L27.6904 0Z" fill="#50DFB2"/>
<path d="M31.5756 0H20.7079C9.63427 0 0.565918 8.35387 0.565918 18.555V28.5665L31.5756 0Z" fill="#50DFB2"/>
<path d="M35.4607 0H20.7079C17.4941 0 14.4594 0.700967 11.7559 1.94621L2.67858 10.3083C1.32684 12.7988 0.565918 15.5944 0.565918 18.555V32.1455L35.4607 0Z" fill="#50DFB2"/>
<path d="M39.3548 0H20.7079C19.6157 0 18.5415 0.0824668 17.4941 0.239153L0.825525 15.5944C0.655438 16.5593 0.565918 17.5489 0.565918 18.555V35.7328L39.3548 0Z" fill="#50DFB2"/>
<path d="M0.565918 39.3119L43.24 0H21.6478L0.565918 19.4209V39.3119Z" fill="#50DFB2"/>
<path d="M0.565918 42.8909L47.1251 0H25.533L0.565918 23V42.8909Z" fill="#50DFB2"/>
<path d="M0.565918 46.4782L51.0192 0H29.4181L0.565918 26.579V46.4782Z" fill="#50DFB2"/>
<path d="M0.565918 30.1663V50.0573L54.9044 0H33.3122L0.565918 30.1663Z" fill="#50DFB2"/>
<path d="M0.565918 33.7454V53.6363L58.7895 0H37.1974L0.565918 33.7454Z" fill="#50DFB2"/>
<path d="M60.9917 0H41.0825L0.565918 37.3244V55.665C0.565918 56.168 0.592774 56.6628 0.628582 57.1576L62.612 0.0577267C62.0749 0.0247401 61.5378 0 60.9917 0Z" fill="#50DFB2"/>
<path d="M60.9917 0H44.9767L0.565918 40.9117V55.665C0.565918 57.2401 0.780765 58.7657 1.1836 60.2337L65.9511 0.56902C64.3577 0.19792 62.7016 0 60.9917 0Z" fill="#50DFB2"/>
<path d="M60.9917 0H48.8618L0.565918 44.4908V55.665C0.565918 58.2297 1.13884 60.679 2.16832 62.9056L68.8516 1.47615C66.4345 0.527787 63.7758 0 60.9917 0Z" fill="#50DFB2"/>
<path d="M71.4208 2.69666C68.3682 0.9896 64.7963 0 60.9917 0H52.747L0.565918 48.0698V55.665C0.565918 59.1698 1.64015 62.4603 3.49321 65.2724L71.4208 2.69666Z" fill="#50DFB2"/>
<path d="M73.6946 4.18106C70.2212 1.57511 65.7989 0 60.9917 0H56.6411L0.565918 51.6571V55.665C0.565918 60.0935 2.27574 64.1673 5.10457 67.367L73.6946 4.18106Z" fill="#50DFB2"/>
<path d="M60.9917 0H60.5262L0.565918 55.2362V55.665C0.565918 61.0006 3.04561 65.8249 6.98448 69.2143L75.6998 5.91286C72.0206 2.28433 66.7837 0 60.9917 0Z" fill="#50DFB2"/>
<path d="M0.81665 58.5844C1.69394 63.6148 4.78237 67.9938 9.12408 70.8224L77.4455 7.88386C74.375 3.87598 69.6215 1.03088 64.1608 0.230957L0.81665 58.5844Z" fill="#50DFB2"/>
<path d="M1.57739 61.4622C3.25141 66.1133 6.87696 69.9562 11.5409 72.1746L78.9135 10.1102C76.5144 5.81367 72.3338 2.47377 67.2849 0.931641L1.57739 61.4622Z" fill="#50DFB2"/>
<path d="M2.72339 63.994C5.09566 68.307 9.24938 71.6716 14.2804 73.2467L80.0774 12.6338C78.3676 7.99913 74.7152 4.17267 70.0333 1.9873L2.72339 63.994Z" fill="#50DFB2"/>
<path d="M4.18237 66.2371C7.22604 70.2532 11.9437 73.1231 17.3865 73.9642L80.856 15.4954C79.9429 10.4814 76.8276 6.13541 72.468 3.33154L4.18237 66.2371Z" fill="#50DFB2"/>
<path d="M81.1338 18.5551C81.1338 13.1783 78.6183 8.32097 74.6257 4.92334L5.9104 68.2247C9.59861 71.9028 14.8713 74.2201 20.708 74.2201H20.9945L81.1338 18.819V18.5551Z" fill="#50DFB2"/>
<path d="M81.1336 18.5549C81.1336 14.0852 79.397 9.97841 76.5144 6.76221L7.90649 69.9647C11.3978 72.6201 15.8558 74.2199 20.7078 74.2199H24.8794L81.1336 22.3979V18.5549Z" fill="#50DFB2"/>
<path d="M81.1334 18.555C81.1334 15.0006 80.0323 11.6772 78.1345 8.84863L10.1711 71.4573C13.2417 73.2056 16.8493 74.22 20.7076 74.22H28.7733L81.1334 25.9852V18.555Z" fill="#50DFB2"/>
<path d="M20.7078 74.2202H32.6587L81.1336 29.5645V18.5552C81.1336 15.9493 80.5428 13.4588 79.4775 11.1992L12.7227 72.6864C15.1755 73.676 17.879 74.2202 20.7078 74.2202Z" fill="#50DFB2"/>
<path d="M20.7077 74.2197H36.5437L81.1335 33.143V18.5547C81.1335 16.9301 80.9007 15.3632 80.471 13.8623L15.614 73.6094C17.2433 74.0052 18.9441 74.2197 20.7077 74.2197Z" fill="#50DFB2"/>
<path d="M20.7079 74.2201H40.438L81.1337 36.7307V18.5551C81.1337 18.0026 81.1068 17.45 81.0531 16.9058L18.9175 74.1459C19.5083 74.1954 20.1081 74.2201 20.7079 74.2201Z" fill="#50DFB2"/>
<path d="M44.3229 74.2202L81.1334 40.3099V20.4189L22.7307 74.2202H44.3229Z" fill="#50DFB2"/>
<path d="M48.2081 74.2202L81.1335 43.889V23.998L26.616 74.2202H48.2081Z" fill="#50DFB2"/>
<path d="M52.1023 74.2203L81.1336 47.4764V27.5771L30.5012 74.2203H52.1023Z" fill="#50DFB2"/>
<path d="M55.9874 74.2199L81.1335 51.055V31.1641L34.3953 74.2199H55.9874Z" fill="#50DFB2"/>
<path d="M59.8727 74.22L81.1336 54.6341V34.7432L38.2805 74.22H59.8727Z" fill="#50DFB2"/>
<path d="M81.1337 55.665V38.3223L42.1658 74.22H60.9918C62.0123 74.22 63.006 74.1458 63.9907 74.0138L80.9099 58.4276C81.0531 57.5205 81.1337 56.6051 81.1337 55.665Z" fill="#50DFB2"/>
<path d="M81.1339 55.6651V41.9097L46.0601 74.2201H60.9919C64.0625 74.2201 66.9808 73.5769 69.5948 72.4306L79.1913 63.5902C80.4356 61.1821 81.1339 58.4937 81.1339 55.6651Z" fill="#50DFB2"/>
<path d="M81.1335 45.4883L49.9448 74.2197H60.9916C72.0741 74.2197 81.1335 65.8658 81.1335 55.6647V45.4883Z" fill="#50DFB2"/>
<path d="M81.1336 49.0674L53.8301 74.2197H60.9917C72.0742 74.2197 81.1336 65.8658 81.1336 55.6647V49.0674Z" fill="#50DFB2"/>
<path d="M81.1338 52.6553L57.7244 74.2203H60.9918C72.0744 74.2203 81.1338 65.8664 81.1338 55.6653V52.6553Z" fill="#50DFB2"/>
<path d="M81.1245 56.2422L61.6182 74.2117C72.1994 73.9065 80.7933 65.9897 81.1245 56.2422Z" fill="#50DFB2"/>
<path d="M80.453 60.4482L66.1836 73.5934C73.1124 71.8781 78.591 66.8312 80.453 60.4482Z" fill="#50DFB2"/>
<path d="M54.6498 45.5966H56.9418V56.11H54.6498V45.5966ZM50.0668 45.5966H52.3584V56.11H50.0668V45.5966ZM45.4831 45.5966H47.7751V56.11H45.4831V45.5966ZM40.8998 45.5966H43.1914V56.11H40.8998V45.5966ZM36.3164 45.5966H38.6081V56.11H36.3164V45.5966ZM31.7328 45.5966H34.0248V56.11H31.7328V45.5966ZM24.1475 56.11L23.2764 54.1675C26.3473 53.0907 26.2329 47.6653 25.9348 45.702L28.2265 45.4063C28.2497 45.7652 29.4417 54.1675 24.1475 56.11ZM58.0874 34.9986V27.6095C58.1377 22.4097 53.6034 18.1563 47.9591 18.1094H27.1497C25.2512 18.1094 23.7121 19.527 23.7121 21.2759V34.9986H20.2744V43.443H61.5251V34.9986H58.0874ZM29.4417 22.3316H40.8998V24.4427H29.4417V22.3316ZM29.4417 26.5538H40.8998V28.6649H29.4417V26.5538ZM29.4417 40.9092H24.8581V37.5319H29.4417V40.9092ZM45.4831 32.8875H29.4417V30.7761H45.4831V32.8875ZM47.7751 26.5538V20.2208C51.8003 20.1195 55.2421 22.8687 55.7042 26.5544L47.7751 26.5538Z" fill="white"/>
</svg>
