<svg width="81" height="75" viewBox="0 0 81 75" fill="none" xmlns="http://www.w3.org/2000/svg">
<path d="M15.4247 0.692871C8.74943 2.44116 3.4678 7.34793 1.58594 13.5494L15.4247 0.692871Z" fill="#783EFD"/>
<path d="M20.0049 0.0166016C9.66359 0.404195 1.27511 8.18905 0.85791 17.8047L20.0049 0.0166016Z" fill="#783EFD"/>
<path d="M23.8754 0H20.8129C9.83243 0 0.840332 8.35387 0.840332 18.555V21.4001L23.8754 0Z" fill="#783EFD"/>
<path d="M27.7367 0H20.8129C9.83242 0 0.840332 8.35387 0.840332 18.555V24.9874L27.7367 0Z" fill="#783EFD"/>
<path d="M31.5892 0H20.8129C9.83243 0 0.840332 8.35387 0.840332 18.555V28.5665L31.5892 0Z" fill="#783EFD"/>
<path d="M35.4417 0H20.8129C17.6262 0 14.617 0.700967 11.9362 1.94621L2.93523 10.3083C1.59485 12.7988 0.840332 15.5944 0.840332 18.555V32.1455L35.4417 0Z" fill="#783EFD"/>
<path d="M39.3031 0H20.8129C19.7299 0 18.6647 0.0824668 17.6262 0.239153L1.09776 15.5944C0.929099 16.5593 0.840332 17.5489 0.840332 18.555V35.7328L39.3031 0Z" fill="#783EFD"/>
<path d="M0.840332 39.3119L43.1555 0H21.7449L0.840332 19.4209V39.3119Z" fill="#783EFD"/>
<path d="M0.840332 42.8909L47.008 0H25.5974L0.840332 23V42.8909Z" fill="#783EFD"/>
<path d="M0.840332 46.4782L50.8694 0H29.4499L0.840332 26.579V46.4782Z" fill="#783EFD"/>
<path d="M0.840332 30.1663V50.0573L54.7219 0H33.3113L0.840332 30.1663Z" fill="#783EFD"/>
<path d="M0.840332 33.7454V53.6363L58.5744 0H37.1638L0.840332 33.7454Z" fill="#783EFD"/>
<path d="M60.758 0H41.0163L0.840332 37.3244V55.665C0.840332 56.168 0.866962 56.6628 0.902469 57.1576L62.3647 0.0577267C61.8321 0.0247401 61.2995 0 60.758 0Z" fill="#783EFD"/>
<path d="M60.758 0H44.8776L0.840332 40.9117V55.665C0.840332 57.2401 1.05337 58.7657 1.45282 60.2337L65.6757 0.56902C64.0957 0.19792 62.4535 0 60.758 0Z" fill="#783EFD"/>
<path d="M60.758 0H48.7301L0.840332 44.4908V55.665C0.840332 58.2297 1.40844 60.679 2.42926 62.9056L68.5518 1.47615C66.1551 0.527787 63.5187 0 60.758 0Z" fill="#783EFD"/>
<path d="M71.0994 2.69666C68.0724 0.9896 64.5306 0 60.758 0H52.5826L0.840332 48.0698V55.665C0.840332 59.1698 1.90554 62.4603 3.74301 65.2724L71.0994 2.69666Z" fill="#783EFD"/>
<path d="M73.354 4.18106C69.9099 1.57511 65.5248 0 60.758 0H56.4439L0.840332 51.6571V55.665C0.840332 60.0935 2.53578 64.1673 5.34082 67.367L73.354 4.18106Z" fill="#783EFD"/>
<path d="M60.758 0H60.2964L0.840332 55.2362V55.665C0.840332 61.0006 3.29918 65.8249 7.20492 69.2143L75.3424 5.91286C71.6941 2.28433 66.5012 0 60.758 0Z" fill="#783EFD"/>
<path d="M1.08887 58.5844C1.95878 63.6148 5.02124 67.9938 9.32644 70.8224L77.0734 7.88386C74.0287 3.87598 69.3152 1.03088 63.9004 0.230957L1.08887 58.5844Z" fill="#783EFD"/>
<path d="M1.84326 61.4622C3.5032 66.1133 7.09827 69.9562 11.723 72.1746L78.529 10.1102C76.1501 5.81367 72.0047 2.47377 66.9982 0.931641L1.84326 61.4622Z" fill="#783EFD"/>
<path d="M2.97998 63.994C5.3323 68.307 9.45109 71.6716 14.4398 73.2467L79.6835 12.6338C77.9881 7.99913 74.3664 4.17267 69.7239 1.9873L2.97998 63.994Z" fill="#783EFD"/>
<path d="M4.42627 66.2371C7.44435 70.2532 12.1224 73.1231 17.5194 73.9642L80.4552 15.4954C79.5497 10.4814 76.4606 6.13541 72.1377 3.33154L4.42627 66.2371Z" fill="#783EFD"/>
<path d="M80.7305 18.5551C80.7305 13.1783 78.2362 8.32097 74.2772 4.92334L6.13965 68.2247C9.79685 71.9028 15.0252 74.2201 20.8128 74.2201H21.0969L80.7305 18.819V18.5551Z" fill="#783EFD"/>
<path d="M80.73 18.5549C80.73 14.0852 79.0079 9.97841 76.1497 6.76221L8.11865 69.9647C11.5806 72.6201 16.0012 74.2199 20.8123 74.2199H24.9489L80.73 22.3979V18.5549Z" fill="#783EFD"/>
<path d="M80.7303 18.555C80.7303 15.0006 79.6385 11.6772 77.7566 8.84863L10.3647 71.4573C13.4095 73.2056 16.9868 74.22 20.8126 74.22H28.8105L80.7303 25.9852V18.555Z" fill="#783EFD"/>
<path d="M20.813 74.2202H32.6634L80.7307 29.5645V18.5552C80.7307 15.9493 80.1449 13.4588 79.0885 11.1992L12.895 72.6864C15.3272 73.676 18.008 74.2202 20.813 74.2202Z" fill="#783EFD"/>
<path d="M20.813 74.2201H36.5159L80.7307 33.1435V18.5551C80.7307 16.9306 80.4999 15.3637 80.0739 13.8628L15.7622 73.6099C17.3778 74.0057 19.0643 74.2201 20.813 74.2201Z" fill="#783EFD"/>
<path d="M20.8129 74.2201H40.3772L80.7306 36.7307V18.5551C80.7306 18.0026 80.704 17.45 80.6507 16.9058L19.0376 74.1459C19.6235 74.1954 20.2182 74.2201 20.8129 74.2201Z" fill="#783EFD"/>
<path d="M44.2294 74.2202L80.7304 40.3099V20.4189L22.8188 74.2202H44.2294Z" fill="#783EFD"/>
<path d="M48.082 74.2202L80.7305 43.889V23.998L26.6714 74.2202H48.082Z" fill="#783EFD"/>
<path d="M51.9434 74.2203L80.7305 47.4764V27.5771L30.5239 74.2203H51.9434Z" fill="#783EFD"/>
<path d="M55.7958 74.2199L80.7305 51.055V31.1641L34.3853 74.2199H55.7958Z" fill="#783EFD"/>
<path d="M59.6479 74.22L80.73 54.6341V34.7432L38.2373 74.22H59.6479Z" fill="#783EFD"/>
<path d="M80.7301 55.665V38.3223L42.0898 74.22H60.7575C61.7695 74.22 62.7548 74.1458 63.7312 74.0138L80.5082 58.4276C80.6502 57.5205 80.7301 56.6051 80.7301 55.665Z" fill="#783EFD"/>
<path d="M80.7306 55.6651V41.9097L45.9517 74.2201H60.758C63.8027 74.2201 66.6965 73.5769 69.2885 72.4306L78.8043 63.5902C80.0382 61.1821 80.7306 58.4937 80.7306 55.6651Z" fill="#783EFD"/>
<path d="M80.7301 45.4888L49.8037 74.2202H60.7576C71.7469 74.2202 80.7301 65.8663 80.7301 55.6652V45.4888Z" fill="#783EFD"/>
<path d="M80.7302 49.0674L53.6562 74.2197H60.7576C71.747 74.2197 80.7302 65.8658 80.7302 55.6647V49.0674Z" fill="#783EFD"/>
<path d="M80.7301 52.6553L57.5176 74.2203H60.7576C71.7469 74.2203 80.7301 65.8664 80.7301 55.6653V52.6553Z" fill="#783EFD"/>
<path d="M80.7217 56.2422L61.3794 74.2117C71.8716 73.9065 80.3933 65.9897 80.7217 56.2422Z" fill="#783EFD"/>
<path d="M80.0557 60.4482L65.9062 73.5934C72.7768 71.8781 78.2094 66.8312 80.0557 60.4482Z" fill="#783EFD"/>
<path d="M32.6541 22.3489C33.149 22.3489 33.5025 22.0181 33.5025 21.6212V16.7923C33.5025 16.3954 33.149 16.0647 32.6541 16.0647C32.1592 16.0647 31.8057 16.3954 31.8057 16.7923V21.6212C31.8057 22.0181 32.1592 22.3489 32.6541 22.3489ZM42.1983 22.3489C42.6932 22.3489 43.0467 22.0181 43.0467 21.6212V16.7923C43.0467 16.3954 42.6932 16.0647 42.1983 16.0647C41.7034 16.0647 41.3499 16.3954 41.3499 16.7923V21.6212C41.3499 22.0181 41.7034 22.3489 42.1983 22.3489ZM51.7425 22.3489C52.2374 22.3489 52.5909 21.952 52.5909 21.4889V16.8585C52.5909 16.3954 52.2374 15.9985 51.7425 15.9985C51.2477 15.9985 50.8942 16.3954 50.8942 16.8585V21.4889C50.8942 21.952 51.2477 22.3489 51.7425 22.3489ZM60.5798 25.524H23.8168C23.3927 25.524 23.1099 25.7886 23.1099 26.1855V36.6371H61.2868V26.1855C61.2868 25.7886 61.004 25.524 60.5798 25.524ZM48.2783 31.1467V31.3452C48.2783 31.3452 48.2783 31.4113 48.2076 31.4113C48.2076 31.4113 48.2076 31.4775 48.1369 31.4775C48.1369 31.4775 48.1369 31.5436 48.0662 31.5436L47.9955 31.6098L47.9248 31.6759C47.9248 31.6759 47.8541 31.6759 47.8541 31.7421C47.8541 31.7421 47.7834 31.7421 47.7834 31.8082C47.7834 31.8082 47.7128 31.8082 47.7128 31.8744H47.6421H47.5714H47.5007H36.9667H36.896H36.8253H36.7546H36.6839C36.6839 31.8744 36.6132 31.8744 36.6132 31.8082C36.6132 31.8082 36.5425 31.8082 36.5425 31.7421C36.5425 31.7421 36.4718 31.7421 36.4718 31.6759L36.4011 31.6098L36.3304 31.5436C36.3304 31.5436 36.3304 31.4775 36.2597 31.4775C36.2597 31.4775 36.2597 31.4113 36.189 31.4113C36.1183 31.4113 36.189 31.3452 36.1183 31.3452V31.279V31.2129V31.1467V31.0806V31.0144V30.9483V30.8821V30.816C36.1183 30.816 36.1183 30.7498 36.189 30.7498C36.2597 30.7498 36.189 30.6837 36.2597 30.6837C36.2597 30.6837 36.2597 30.6175 36.3304 30.6175L36.4011 30.5514L36.4718 30.4852C36.4718 30.4852 36.5425 30.4852 36.5425 30.4191C36.5425 30.4191 36.6132 30.4191 36.6132 30.3529C36.6132 30.2868 36.6839 30.3529 36.6839 30.2868H47.7128C47.7128 30.2868 47.7834 30.2868 47.7834 30.3529C47.7834 30.4191 47.8541 30.3529 47.8541 30.4191C47.8541 30.4191 47.9248 30.4191 47.9248 30.4852L47.9955 30.5514L48.0662 30.6175C48.0662 30.6175 48.0662 30.6837 48.1369 30.6837C48.1369 30.6837 48.1369 30.7498 48.2076 30.7498C48.2076 30.7498 48.2076 30.816 48.2783 30.816V31.1467ZM23.1099 55.0266C23.1099 55.4235 23.3927 55.6881 23.8168 55.6881H60.5798C61.004 55.6881 61.2868 55.4235 61.2868 55.0266V39.8123H23.1099V55.0266ZM33.3611 46.9564H51.0356C51.389 46.9564 51.7425 47.2871 51.7425 47.7502C51.7425 48.2132 51.4597 48.544 51.0356 48.544H33.3611C33.0076 48.544 32.6541 48.2132 32.6541 47.7502C32.6541 47.2871 32.9369 46.9564 33.3611 46.9564Z" fill="white"/>
</svg>
