<svg width="81" height="75" viewBox="0 0 81 75" fill="none" xmlns="http://www.w3.org/2000/svg">
<path d="M14.8759 0.692871C8.20072 2.44114 2.91918 7.34782 1.03735 13.5492L14.8759 0.692871Z" fill="#FFCC41"/>
<path d="M19.4568 0.0166016C9.11559 0.404188 0.727256 8.18891 0.310059 17.8044L19.4568 0.0166016Z" fill="#FFCC41"/>
<path d="M23.3266 0H20.2642C9.28393 0 0.291992 8.35373 0.291992 18.5547V21.3997L23.3266 0Z" fill="#FFCC41"/>
<path d="M27.1879 0H20.2642C9.28393 0 0.291992 8.35373 0.291992 18.5547V24.987L27.1879 0Z" fill="#FFCC41"/>
<path d="M31.0403 0H20.2642C9.28393 0 0.291992 8.35373 0.291992 18.5547V28.566L31.0403 0Z" fill="#FFCC41"/>
<path d="M34.8928 0H20.2642C17.0775 0 14.0684 0.700955 11.3877 1.94618L2.38686 10.3082C1.0465 12.7986 0.291992 15.5942 0.291992 18.5547V32.145L34.8928 0Z" fill="#FFCC41"/>
<path d="M38.7541 0H20.2642C19.1813 0 18.1161 0.0824654 17.0775 0.239149L0.549412 15.5942C0.380758 16.559 0.291992 17.5486 0.291992 18.5547V35.7322L38.7541 0Z" fill="#FFCC41"/>
<path d="M0.291992 39.3112L42.6065 0H21.1963L0.291992 19.4206V39.3112Z" fill="#FFCC41"/>
<path d="M0.291992 42.8902L46.4589 0H25.0487L0.291992 22.9996V42.8902Z" fill="#FFCC41"/>
<path d="M0.291992 46.4774L50.3202 0H28.9011L0.291992 26.5786V46.4774Z" fill="#FFCC41"/>
<path d="M0.291992 30.1658V50.0564L54.1726 0H32.7624L0.291992 30.1658Z" fill="#FFCC41"/>
<path d="M0.291992 33.7448V53.6354L58.025 0H36.6148L0.291992 33.7448Z" fill="#FFCC41"/>
<path d="M60.2087 0H40.4672L0.291992 37.3238V55.6641C0.291992 56.1671 0.318622 56.6619 0.354128 57.1567L61.8153 0.0577258C61.2827 0.0247396 60.7501 0 60.2087 0Z" fill="#FFCC41"/>
<path d="M60.2087 0H44.3285L0.291992 40.911V55.6641C0.291992 57.2391 0.505029 58.7648 0.904474 60.2326L65.1263 0.569011C63.5463 0.197917 61.9041 0 60.2087 0Z" fill="#FFCC41"/>
<path d="M60.2087 0H48.181L0.291992 44.49V55.6641C0.291992 58.2287 0.860091 60.6779 1.88089 62.9045L68.0023 1.47613C65.6056 0.527778 62.9693 0 60.2087 0Z" fill="#FFCC41"/>
<path d="M70.5499 2.69661C67.523 0.989583 63.9812 0 60.2087 0H52.0334L0.291992 48.069V55.6641C0.291992 59.1688 1.35718 62.4592 3.19462 65.2713L70.5499 2.69661Z" fill="#FFCC41"/>
<path d="M72.8045 4.18099C69.3604 1.57509 64.9754 0 60.2087 0H55.8947L0.291992 51.6562V55.6641C0.291992 60.0924 1.98741 64.1662 4.7924 67.3659L72.8045 4.18099Z" fill="#FFCC41"/>
<path d="M60.2087 0H59.7471L0.291992 55.2352V55.6641C0.291992 60.9996 2.75079 65.8238 6.65647 69.2131L74.7928 5.91276C71.1446 2.28429 65.9518 0 60.2087 0Z" fill="#FFCC41"/>
<path d="M0.540771 58.5834C1.41067 63.6138 4.47308 67.9927 8.77821 70.8212L76.524 7.88373C73.4793 3.87592 68.7659 1.03087 63.3512 0.230957L0.540771 58.5834Z" fill="#FFCC41"/>
<path d="M1.29492 61.4612C2.95484 66.1122 6.54984 69.9551 11.1745 72.1734L77.9794 10.11C75.6005 5.81359 71.4551 2.47374 66.4488 0.931641L1.29492 61.4612Z" fill="#FFCC41"/>
<path d="M2.43115 63.9929C4.78344 68.3059 8.90215 71.6705 13.8908 73.2456L79.1334 12.6336C77.438 7.99902 73.8163 4.17263 69.1739 1.9873L2.43115 63.9929Z" fill="#FFCC41"/>
<path d="M3.87817 66.2361C6.8962 70.2521 11.5741 73.1219 16.9711 73.9631L79.9058 15.4952C79.0004 10.4813 75.9113 6.13536 71.5885 3.33154L3.87817 66.2361Z" fill="#FFCC41"/>
<path d="M80.1809 18.5549C80.1809 13.1781 77.6866 8.32091 73.7277 4.92334L5.59131 68.2237C9.24845 71.9016 14.4767 74.2189 20.2642 74.2189H20.5483L80.1809 18.8187V18.5549Z" fill="#FFCC41"/>
<path d="M80.1809 18.5547C80.1809 14.0851 78.4589 9.97835 75.6006 6.76221L7.5708 69.9636C11.0327 72.619 15.4532 74.2188 20.2643 74.2188H24.4007L80.1809 22.3976V18.5547Z" fill="#FFCC41"/>
<path d="M80.1808 18.5548C80.1808 15.0005 79.089 11.6772 77.2071 8.84863L9.81641 71.4563C12.8611 73.2045 16.4383 74.2189 20.2641 74.2189H28.2619L80.1808 25.9849V18.5548Z" fill="#FFCC41"/>
<path d="M20.2643 74.2187H32.1145L80.181 29.5637V18.5546C80.181 15.9487 79.5951 13.4583 78.5388 11.1987L12.3464 72.6848C14.7786 73.6744 17.4593 74.2187 20.2643 74.2187Z" fill="#FFCC41"/>
<path d="M20.2641 74.2186H35.9667L80.1808 33.1427V18.5546C80.1808 16.93 79.95 15.3632 79.524 13.8623L15.2134 73.6084C16.8289 74.0042 18.5155 74.2186 20.2641 74.2186Z" fill="#FFCC41"/>
<path d="M20.2641 74.2186H39.828L80.1808 36.7299V18.5546C80.1808 18.0021 80.1541 17.4495 80.1009 16.9053L18.4888 74.1444C19.0746 74.1939 19.6694 74.2186 20.2641 74.2186Z" fill="#FFCC41"/>
<path d="M43.6807 74.2188L80.1811 40.3091V20.4185L22.2705 74.2188H43.6807Z" fill="#FFCC41"/>
<path d="M47.533 74.2189L80.181 43.8882V23.9976L26.1228 74.2189H47.533Z" fill="#FFCC41"/>
<path d="M51.3944 74.2185L80.1811 47.475V27.5762L29.9753 74.2185H51.3944Z" fill="#FFCC41"/>
<path d="M55.2467 74.2187L80.1809 51.0542V31.1636L33.8364 74.2187H55.2467Z" fill="#FFCC41"/>
<path d="M59.0992 74.2188L80.181 54.6333V34.7427L37.689 74.2188H59.0992Z" fill="#FFCC41"/>
<path d="M80.1806 55.6642V38.3218L41.541 74.2189H60.2084C61.2203 74.2189 62.2056 74.1447 63.182 74.0128L79.9587 58.4268C80.1007 57.5197 80.1806 56.6043 80.1806 55.6642Z" fill="#FFCC41"/>
<path d="M80.1809 55.6639V41.9087L45.4026 74.2186H60.2087C63.2533 74.2186 66.1471 73.5754 68.739 72.4291L78.2547 63.5888C79.4885 61.1808 80.1809 58.4925 80.1809 55.6639Z" fill="#FFCC41"/>
<path d="M80.181 45.4878L49.2551 74.2187H60.2088C71.1979 74.2187 80.181 65.865 80.181 55.664V45.4878Z" fill="#FFCC41"/>
<path d="M80.1809 49.0669L53.1074 74.2188H60.2087C71.1978 74.2188 80.1809 65.8651 80.1809 55.6641V49.0669Z" fill="#FFCC41"/>
<path d="M80.1812 52.6543L56.969 74.219H60.2089C71.1981 74.219 80.1812 65.8652 80.1812 55.6643V52.6543Z" fill="#FFCC41"/>
<path d="M80.1718 56.2412L60.8298 74.2104C71.3219 73.9053 79.8434 65.9886 80.1718 56.2412Z" fill="#FFCC41"/>
<path d="M79.5061 60.4473L65.3569 73.5922C72.2274 71.877 77.6598 66.8301 79.5061 60.4473Z" fill="#FFCC41"/>
<path d="M60.1961 46.2549L41.3068 56.5136C40.8098 56.7857 40.2062 56.7857 39.7091 56.5218L20.3848 46.2301C19.3019 45.6529 19.3196 44.2015 20.4115 43.6407L39.3007 34.017C39.7712 33.7779 40.3482 33.7696 40.8275 34.0088L60.1517 43.6572C61.2436 44.2097 61.2702 45.6694 60.1961 46.2549Z" fill="#FFF1C0"/>
<path d="M60.1961 38.0908L41.3068 48.3495C40.8098 48.6216 40.2062 48.6216 39.7091 48.3577L20.3848 38.0661C19.3019 37.4888 19.3196 36.0374 20.4115 35.4767L39.3007 25.853C39.7712 25.6138 40.3482 25.6056 40.8275 25.8447L60.1517 35.4932C61.2436 36.0457 61.2702 37.5053 60.1961 38.0908Z" fill="#FFF9D9"/>
<path d="M60.1961 29.9268L41.3068 40.1854C40.8098 40.4576 40.2062 40.4576 39.7091 40.1937L20.3848 29.902C19.3019 29.3248 19.3196 27.8734 20.4115 27.3126L39.3007 17.6889C39.7712 17.4498 40.3482 17.4415 40.8275 17.6807L60.1517 27.3291C61.2436 27.8816 61.2702 29.3413 60.1961 29.9268Z" fill="#FCF1D3"/>
</svg>
