<svg width="81" height="75" viewBox="0 0 81 75" fill="none" xmlns="http://www.w3.org/2000/svg">
<path d="M15.421 0.692383C8.7475 2.44021 3.46729 7.34565 1.58594 13.5455L15.421 0.692383Z" fill="#FE8F66"/>
<path d="M19.9998 0.0166016C9.66122 0.40409 1.275 8.18685 0.85791 17.7999L19.9998 0.0166016Z" fill="#FE8F66"/>
<path d="M23.8691 0H20.8075C9.83 0 0.840332 8.35162 0.840332 18.55V21.3943L23.8691 0Z" fill="#FE8F66"/>
<path d="M27.7295 0H20.8075C9.83 0 0.840332 8.35162 0.840332 18.55V24.9807L27.7295 0Z" fill="#FE8F66"/>
<path d="M31.5809 0H20.8075C9.83 0 0.840332 8.35162 0.840332 18.55V28.5588L31.5809 0Z" fill="#FE8F66"/>
<path d="M35.4324 0H20.8075C17.6216 0 14.6133 0.700778 11.9332 1.94569L2.93467 10.3056C1.59465 12.7954 0.840332 15.5902 0.840332 18.55V32.1368L35.4324 0Z" fill="#FE8F66"/>
<path d="M39.2927 0H20.8075C19.7248 0 18.6599 0.0824446 17.6216 0.239089L1.09769 15.5902C0.929075 16.5548 0.840332 17.5442 0.840332 18.55V35.7232L39.2927 0Z" fill="#FE8F66"/>
<path d="M0.840332 39.3013L43.1441 0H21.7393L0.840332 19.4157V39.3013Z" fill="#FE8F66"/>
<path d="M0.840332 42.8794L46.9956 0H25.5908L0.840332 22.9938V42.8794Z" fill="#FE8F66"/>
<path d="M0.840332 46.4657L50.8559 0H29.4422L0.840332 26.5718V46.4657Z" fill="#FE8F66"/>
<path d="M0.840332 30.1582V50.0438L54.7074 0H33.3025L0.840332 30.1582Z" fill="#FE8F66"/>
<path d="M0.840332 33.7363V53.6219L58.5588 0H37.154L0.840332 33.7363Z" fill="#FE8F66"/>
<path d="M60.7419 0H41.0054L0.840332 37.3144V55.65C0.840332 56.1529 0.866955 56.6476 0.902452 57.1422L62.3481 0.0577112C61.8157 0.0247334 61.2832 0 60.7419 0Z" fill="#FE8F66"/>
<path d="M60.7419 0H44.8657L0.840332 40.9007V55.65C0.840332 57.2247 1.05332 58.7499 1.45266 60.2174L65.6582 0.568867C64.0786 0.197867 62.4369 0 60.7419 0Z" fill="#FE8F66"/>
<path d="M60.7419 0H48.7172L0.840332 44.4788V55.65C0.840332 58.214 1.40829 60.6626 2.42883 62.8886L68.5335 1.47576C66.1375 0.527645 63.5018 0 60.7419 0Z" fill="#FE8F66"/>
<path d="M71.0804 2.69593C68.0543 0.989333 64.5135 0 60.7419 0H52.5686L0.840332 48.0569V55.65C0.840332 59.1539 1.90525 62.4434 3.74223 65.2548L71.0804 2.69593Z" fill="#FE8F66"/>
<path d="M73.3345 4.17993C69.8913 1.57469 65.5074 0 60.7419 0H56.429L0.840332 51.6432V55.65C0.840332 60.0773 2.53532 64.15 5.3396 67.3489L73.3345 4.17993Z" fill="#FE8F66"/>
<path d="M60.7419 0H60.2804L0.840332 55.2213V55.65C0.840332 60.9842 3.29851 65.8072 7.20321 69.1956L75.3224 5.91127C71.675 2.28371 66.4836 0 60.7419 0Z" fill="#FE8F66"/>
<path d="M1.08887 58.5686C1.95855 63.5978 5.02018 67.9755 9.32422 70.8034L77.0529 7.8818C74.009 3.875 69.2968 1.03067 63.8834 0.230957L1.08887 58.5686Z" fill="#FE8F66"/>
<path d="M1.84326 61.4459C3.50276 66.0957 7.09685 69.9376 11.7204 72.1554L78.5084 10.1077C76.1301 5.81235 71.9858 2.47335 66.9806 0.931641L1.84326 61.4459Z" fill="#FE8F66"/>
<path d="M2.979 63.9768C5.33069 68.2886 9.44837 71.6524 14.4357 73.2271L79.6619 12.6304C77.9669 7.99702 74.3462 4.17159 69.7049 1.98682L2.979 63.9768Z" fill="#FE8F66"/>
<path d="M4.42529 66.2197C7.44256 70.2347 12.1193 73.1038 17.5149 73.9447L80.4337 15.4916C79.5285 10.479 76.4403 6.13417 72.1185 3.33105L4.42529 66.2197Z" fill="#FE8F66"/>
<path d="M80.709 18.5499C80.709 13.1746 78.2153 8.31859 74.2573 4.92188L6.13818 68.2062C9.7944 71.8832 15.0214 74.1999 20.8074 74.1999H21.0914L80.709 18.8138V18.5499Z" fill="#FE8F66"/>
<path d="M80.709 18.5503C80.709 14.0818 78.9874 9.97608 76.1299 6.76074L8.11719 69.9462C11.5782 72.6009 15.9976 74.2003 20.8074 74.2003H24.9429L80.709 22.3922V18.5503Z" fill="#FE8F66"/>
<path d="M80.7089 18.5499C80.7089 14.9965 79.6174 11.674 77.736 8.84619L10.3623 71.438C13.4062 73.1858 16.9825 74.1999 20.8074 74.1999H28.8031L80.7089 25.9781V18.5499Z" fill="#FE8F66"/>
<path d="M20.8075 74.2003H32.6547L80.709 29.5567V18.5503C80.709 15.9451 80.1233 13.4553 79.0673 11.1963L12.8916 72.6669C15.3232 73.6562 18.0032 74.2003 20.8075 74.2003Z" fill="#FE8F66"/>
<path d="M20.8078 74.2H36.5064L80.7093 33.1344V18.55C80.7093 16.9258 80.4786 15.3594 80.0526 13.8589L15.7583 73.5899C17.3734 73.9856 19.0595 74.2 20.8078 74.2Z" fill="#FE8F66"/>
<path d="M20.8076 74.2003H40.3665L80.7091 36.721V18.5503C80.7091 17.9979 80.6825 17.4455 80.6292 16.9014L19.0327 74.1261C19.6184 74.1755 20.213 74.2003 20.8076 74.2003Z" fill="#FE8F66"/>
<path d="M44.2178 74.1998L80.7089 40.2987V20.4131L22.813 74.1998H44.2178Z" fill="#FE8F66"/>
<path d="M48.0689 74.1999L80.7086 43.8768V23.9912L26.6641 74.1999H48.0689Z" fill="#FE8F66"/>
<path d="M51.9293 74.1999L80.7087 47.4632V27.5693L30.5156 74.1999H51.9293Z" fill="#FE8F66"/>
<path d="M55.7808 74.2L80.7087 51.0414V31.1558L34.376 74.2H55.7808Z" fill="#FE8F66"/>
<path d="M59.6324 74.2L80.7088 54.6195V34.7339L38.2275 74.2H59.6324Z" fill="#FE8F66"/>
<path d="M80.7089 55.6501V38.312L42.0791 74.2001H60.7418C61.7534 74.2001 62.7385 74.1259 63.7147 73.994L80.4871 58.412C80.6291 57.5051 80.7089 56.5899 80.7089 55.6501Z" fill="#FE8F66"/>
<path d="M80.7085 55.6502V41.8984L45.939 74.2002H60.7413C63.7852 74.2002 66.6782 73.5571 69.2695 72.4111L78.7828 63.5731C80.0163 61.1657 80.7085 58.478 80.7085 55.6502Z" fill="#FE8F66"/>
<path d="M80.7096 45.4766L49.7915 74.2002H60.7424C71.7288 74.2002 80.7096 65.8486 80.7096 55.6502V45.4766Z" fill="#FE8F66"/>
<path d="M80.7092 49.0547L53.6426 74.2002H60.742C71.7284 74.2002 80.7092 65.8486 80.7092 55.6502V49.0547Z" fill="#FE8F66"/>
<path d="M80.7092 52.6406L57.5029 74.1999H60.7421C71.7284 74.1999 80.7092 65.8482 80.7092 55.6498V52.6406Z" fill="#FE8F66"/>
<path d="M80.7004 56.2271L61.3633 74.1917C71.8527 73.8867 80.372 65.972 80.7004 56.2271Z" fill="#FE8F66"/>
<path d="M80.0348 60.4316L65.8892 73.5733C72.7579 71.8584 78.1889 66.8128 80.0348 60.4316Z" fill="#FE8F66"/>
<path d="M22.9526 26.7303H46.2769V23.647H22.9526C22.0321 23.647 21.2866 24.3368 21.2866 25.1886C21.2866 26.0405 22.0321 26.7303 22.9526 26.7303ZM22.9526 39.0634H27.1176V35.9802H22.9526C22.7338 35.9801 22.5172 36.02 22.315 36.0974C22.1128 36.1749 21.9292 36.2884 21.7744 36.4316C21.6197 36.5748 21.497 36.7447 21.4133 36.9318C21.3296 37.1189 21.2866 37.3194 21.2866 37.5218C21.2866 37.7243 21.3296 37.9248 21.4133 38.1118C21.497 38.2989 21.6197 38.4689 21.7744 38.612C21.9292 38.7552 22.1128 38.8688 22.315 38.9462C22.5172 39.0237 22.7338 39.0635 22.9526 39.0634ZM21.2866 49.8548C21.2866 50.0573 21.3296 50.2577 21.4133 50.4448C21.497 50.6319 21.6197 50.8018 21.7744 50.945C21.9292 51.0882 22.1128 51.2017 22.315 51.2792C22.5172 51.3566 22.7338 51.3965 22.9526 51.3964H46.2769V48.3132H22.9526C22.7338 48.3131 22.5172 48.3529 22.315 48.4304C22.1128 48.5079 21.9292 48.6214 21.7744 48.7646C21.6197 48.9077 21.497 49.0777 21.4133 49.2648C21.3296 49.4518 21.2866 49.6523 21.2866 49.8548ZM59.6049 35.9802H36.2806V39.0634H59.6049C59.8237 39.0635 60.0403 39.0236 60.2425 38.9461C60.4446 38.8687 60.6282 38.7551 60.7829 38.612C60.9376 38.4688 61.0603 38.2988 61.144 38.1118C61.2277 37.9247 61.2707 37.7243 61.2707 37.5218C61.2708 37.3194 61.2277 37.1189 61.1441 36.9318C61.0604 36.7448 60.9377 36.5748 60.783 36.4316C60.6283 36.2885 60.4446 36.1749 60.2425 36.0974C60.0404 36.02 59.8237 35.9801 59.6049 35.9802ZM59.6049 48.3132H55.4399V51.3964H59.6049C59.8237 51.3965 60.0404 51.3566 60.2425 51.2792C60.4446 51.2017 60.6283 51.0882 60.783 50.945C60.9377 50.8018 61.0604 50.6319 61.1441 50.4448C61.2277 50.2577 61.2708 50.0572 61.2707 49.8548C61.2707 49.6523 61.2277 49.4519 61.144 49.2648C61.0603 49.0778 60.9376 48.9078 60.7829 48.7646C60.6282 48.6215 60.4446 48.5079 60.2425 48.4305C60.0403 48.353 59.8237 48.3131 59.6049 48.3132ZM61.2707 25.1889C61.2708 24.9864 61.2277 24.7859 61.1441 24.5988C61.0604 24.4117 60.9377 24.2418 60.783 24.0986C60.6283 23.9554 60.4447 23.8418 60.2425 23.7643C60.0404 23.6869 59.8237 23.647 59.6049 23.647H55.4399V26.7303H59.6049C59.8237 26.7303 60.0403 26.6905 60.2424 26.613C60.4446 26.5356 60.6282 26.4221 60.7829 26.2789C60.9376 26.1358 61.0603 25.9658 61.144 25.7788C61.2277 25.5918 61.2707 25.3913 61.2707 25.1889ZM50.8583 30.5845C51.1318 30.5846 51.4026 30.5347 51.6553 30.4379C51.908 30.3411 52.1376 30.1991 52.331 30.0201C52.5244 29.8412 52.6778 29.6287 52.7824 29.3949C52.8871 29.1611 52.9409 28.9105 52.9409 28.6574V21.7201C52.9409 21.467 52.8871 21.2164 52.7824 20.9826C52.6778 20.7488 52.5244 20.5363 52.331 20.3574C52.1376 20.1784 51.908 20.0364 51.6553 19.9396C51.4026 19.8428 51.1318 19.7929 50.8583 19.793C50.5848 19.793 50.314 19.8428 50.0613 19.9397C49.8087 20.0365 49.5791 20.1785 49.3857 20.3574C49.1924 20.5364 49.039 20.7488 48.9343 20.9826C48.8297 21.2164 48.7759 21.467 48.7759 21.7201V28.6574C48.7759 28.9105 48.8297 29.1611 48.9343 29.3949C49.039 29.6287 49.1924 29.8411 49.3857 30.0201C49.5791 30.199 49.8087 30.341 50.0613 30.4378C50.314 30.5347 50.5848 30.5845 50.8583 30.5845ZM29.6166 34.0533V40.9906C29.6166 41.2437 29.6705 41.4942 29.7751 41.7281C29.8798 41.9619 30.0332 42.1743 30.2266 42.3533C30.42 42.5322 30.6496 42.6741 30.9023 42.7709C31.1549 42.8678 31.4258 42.9176 31.6993 42.9175C31.9727 42.9176 32.2436 42.8678 32.4963 42.7709C32.7489 42.6741 32.9785 42.5322 33.1719 42.3533C33.3653 42.1743 33.5187 41.9619 33.6234 41.7281C33.7281 41.4942 33.7819 41.2437 33.7819 40.9906V34.0533C33.7819 33.8002 33.7281 33.5496 33.6234 33.3158C33.5188 33.0819 33.3653 32.8695 33.172 32.6905C32.9786 32.5116 32.749 32.3696 32.4963 32.2728C32.2436 32.1759 31.9728 32.1261 31.6993 32.1261C31.4257 32.1261 31.1549 32.1759 30.9022 32.2728C30.6495 32.3696 30.4199 32.5116 30.2266 32.6905C30.0332 32.8695 29.8798 33.0819 29.7751 33.3158C29.6705 33.5496 29.6166 33.8002 29.6166 34.0533ZM50.8583 44.4593C50.5848 44.4593 50.314 44.5091 50.0613 44.606C49.8087 44.7028 49.5791 44.8447 49.3857 45.0236C49.1924 45.2026 49.039 45.415 48.9343 45.6488C48.8297 45.8826 48.7759 46.1332 48.7759 46.3862V53.3235C48.7758 53.5766 48.8297 53.8272 48.9343 54.061C49.0389 54.2949 49.1923 54.5073 49.3857 54.6863C49.579 54.8652 49.8086 55.0072 50.0613 55.104C50.314 55.2009 50.5848 55.2507 50.8583 55.2507C51.1318 55.2507 51.4026 55.2009 51.6553 55.104C51.908 55.0072 52.1376 54.8652 52.331 54.6863C52.5244 54.5073 52.6778 54.2949 52.7824 54.0611C52.8871 53.8272 52.9409 53.5766 52.9409 53.3235V46.3862C52.9409 46.1332 52.887 45.8826 52.7824 45.6488C52.6777 45.415 52.5243 45.2026 52.3309 45.0236C52.1375 44.8447 51.9079 44.7028 51.6552 44.6059C51.4026 44.5091 51.1318 44.4593 50.8583 44.4593Z" fill="white"/>
</svg>
